<svg width="89" height="88" viewBox="0 0 89 88" fill="none" xmlns="http://www.w3.org/2000/svg">
<mask id="path-1-outside-1_16157_20" maskUnits="userSpaceOnUse" x="4.83594" y="8" width="80" height="58" fill="black">
<rect fill="white" x="4.83594" y="8" width="80" height="58"/>
<path d="M18.8359 62.3333H15.1693C13.2243 62.3333 11.3591 61.5607 9.98382 60.1854C8.60855 58.8102 7.83594 56.9449 7.83594 55V18.3333C7.83594 16.3884 8.60855 14.5231 9.98382 13.1479C11.3591 11.7726 13.2243 11 15.1693 11H73.8359C75.7809 11 77.6461 11.7726 79.0214 13.1479C80.3967 14.5231 81.1693 16.3884 81.1693 18.3333V55C81.1693 56.9449 80.3967 58.8102 79.0214 60.1854C77.6461 61.5607 75.7809 62.3333 73.8359 62.3333H70.1693"/>
</mask>
<path d="M18.8359 65.3333C20.4928 65.3333 21.8359 63.9902 21.8359 62.3333C21.8359 60.6765 20.4928 59.3333 18.8359 59.3333V65.3333ZM7.83594 55H4.83594H7.83594ZM15.1693 11V8V11ZM73.8359 11V8V11ZM70.1693 59.3333C68.5124 59.3333 67.1693 60.6765 67.1693 62.3333C67.1693 63.9902 68.5124 65.3333 70.1693 65.3333V59.3333ZM18.8359 59.3333H15.1693V65.3333H18.8359V59.3333ZM15.1693 59.3333C14.02 59.3333 12.9178 58.8768 12.1051 58.0641L7.8625 62.3068C9.80038 64.2446 12.4287 65.3333 15.1693 65.3333V59.3333ZM12.1051 58.0641C11.2925 57.2515 10.8359 56.1493 10.8359 55H4.83594C4.83594 57.7406 5.92462 60.3689 7.8625 62.3068L12.1051 58.0641ZM10.8359 55V18.3333H4.83594V55H10.8359ZM10.8359 18.3333C10.8359 17.1841 11.2925 16.0819 12.1051 15.2692L7.8625 11.0266C5.92462 12.9644 4.83594 15.5928 4.83594 18.3333H10.8359ZM12.1051 15.2692C12.9178 14.4565 14.02 14 15.1693 14V8C12.4287 8 9.80038 9.08869 7.8625 11.0266L12.1051 15.2692ZM15.1693 14H73.8359V8H15.1693V14ZM73.8359 14C74.9852 14 76.0874 14.4565 76.9001 15.2692L81.1427 11.0266C79.2048 9.08869 76.5765 8 73.8359 8V14ZM76.9001 15.2692C77.7127 16.0819 78.1693 17.1841 78.1693 18.3333H84.1693C84.1693 15.5928 83.0806 12.9644 81.1427 11.0266L76.9001 15.2692ZM78.1693 18.3333V55H84.1693V18.3333H78.1693ZM78.1693 55C78.1693 56.1493 77.7127 57.2515 76.9001 58.0641L81.1427 62.3068C83.0806 60.3689 84.1693 57.7406 84.1693 55H78.1693ZM76.9001 58.0641C76.0874 58.8768 74.9852 59.3333 73.8359 59.3333V65.3333C76.5765 65.3333 79.2048 64.2446 81.1427 62.3068L76.9001 58.0641ZM73.8359 59.3333H70.1693V65.3333H73.8359V59.3333Z" fill="url(#paint0_linear_16157_20)" mask="url(#path-1-outside-1_16157_20)"/>
<path d="M45.4603 57.5137C44.904 57.0501 44.096 57.0501 43.5397 57.5137L21.5397 75.847C21.0546 76.2513 20.8746 76.9162 21.0896 77.51C21.3046 78.1038 21.8685 78.4993 22.5 78.4993H66.5C67.1315 78.4993 67.6954 78.1038 67.9104 77.51C68.1254 76.9162 67.9454 76.2513 67.4603 75.847L45.4603 57.5137Z" stroke="url(#paint1_linear_16157_20)" stroke-width="3" stroke-linecap="round" stroke-linejoin="round"/>
<defs>
<linearGradient id="paint0_linear_16157_20" x1="7.83594" y1="36.6667" x2="81.1693" y2="36.6667" gradientUnits="userSpaceOnUse">
<stop stop-color="#DB6A19"/>
<stop offset="0.705" stop-color="#29007F"/>
</linearGradient>
<linearGradient id="paint1_linear_16157_20" x1="22.5" y1="67.8327" x2="66.5" y2="67.8327" gradientUnits="userSpaceOnUse">
<stop stop-color="#DB6A19"/>
<stop offset="0.705" stop-color="#29007F"/>
</linearGradient>
</defs>
</svg>
