<svg width="89" height="88" viewBox="0 0 89 88" fill="none" xmlns="http://www.w3.org/2000/svg">
<path d="M34.6 65.45C34.6 67.7344 33.9226 69.9675 32.6535 71.8668C31.3844 73.7662 29.5805 75.2466 27.47 76.1208C25.3595 76.995 23.0372 77.2237 20.7967 76.7781C18.5562 76.3324 16.4982 75.2324 14.8829 73.6171C13.2676 72.0018 12.1676 69.9438 11.7219 67.7033C11.2763 65.4628 11.505 63.1405 12.3792 61.03C13.2534 58.9195 14.7338 57.1157 16.6332 55.8465C18.5326 54.5774 20.7656 53.9 23.05 53.9H65.95C68.2344 53.9 70.4675 54.5774 72.3668 55.8465C74.2662 57.1157 75.7466 58.9195 76.6208 61.03C77.495 63.1405 77.7237 65.4628 77.2781 67.7033C76.8324 69.9438 75.7324 72.0018 74.1171 73.6171C72.5018 75.2324 70.4438 76.3324 68.2033 76.7781C65.9628 77.2237 63.6405 76.995 61.53 76.1208C59.4195 75.2466 57.6157 73.7662 56.3465 71.8668C55.0774 69.9675 54.4 67.7344 54.4 65.45V22.55C54.4 20.2656 55.0774 18.0326 56.3465 16.1332C57.6157 14.2338 59.4195 12.7534 61.53 11.8792C63.6405 11.005 65.9628 10.7763 68.2033 11.2219C70.4438 11.6676 72.5018 12.7676 74.1171 14.3829C75.7324 15.9982 76.8324 18.0562 77.2781 20.2967C77.7237 22.5372 77.495 24.8595 76.6208 26.97C75.7466 29.0805 74.2662 30.8844 72.3668 32.1535C70.4675 33.4226 68.2344 34.1 65.95 34.1H23.05C20.7656 34.1 18.5326 33.4226 16.6332 32.1535C14.7338 30.8844 13.2534 29.0805 12.3792 26.97C11.505 24.8595 11.2763 22.5372 11.7219 20.2967C12.1676 18.0562 13.2676 15.9982 14.8829 14.3829C16.4982 12.7676 18.5562 11.6676 20.7967 11.2219C23.0372 10.7763 25.3595 11.005 27.47 11.8792C29.5805 12.7534 31.3844 14.2338 32.6535 16.1332C33.9226 18.0326 34.6 20.2656 34.6 22.55V65.45Z" stroke="url(#paint0_linear_16157_292)" stroke-width="3"/>
<defs>
<linearGradient id="paint0_linear_16157_292" x1="11.5" y1="44" x2="77.5" y2="44" gradientUnits="userSpaceOnUse">
<stop stop-color="#DB6A19"/>
<stop offset="0.705" stop-color="#29007F"/>
</linearGradient>
</defs>
</svg>
