<svg width="89" height="88" viewBox="0 0 89 88" fill="none" xmlns="http://www.w3.org/2000/svg">
<path fill-rule="evenodd" clip-rule="evenodd" d="M26.1654 19.834C22.9437 19.834 20.332 22.4457 20.332 25.6673V62.334C20.332 65.5556 22.9437 68.1673 26.1654 68.1673H62.832C66.0537 68.1673 68.6654 65.5556 68.6654 62.334V25.6673C68.6654 22.4457 66.0537 19.834 62.832 19.834H26.1654ZM17.332 25.6673C17.332 20.7888 21.2868 16.834 26.1654 16.834H62.832C67.7105 16.834 71.6654 20.7888 71.6654 25.6673V62.334C71.6654 67.2125 67.7105 71.1673 62.832 71.1673H26.1654C21.2868 71.1673 17.332 67.2125 17.332 62.334V25.6673Z" fill="url(#paint0_linear_16157_1018)"/>
<path fill-rule="evenodd" clip-rule="evenodd" d="M29.832 5.83398C30.6605 5.83398 31.332 6.50556 31.332 7.33398V18.334C31.332 19.1624 30.6605 19.834 29.832 19.834C29.0036 19.834 28.332 19.1624 28.332 18.334V7.33398C28.332 6.50556 29.0036 5.83398 29.832 5.83398Z" fill="url(#paint1_linear_16157_1018)"/>
<path fill-rule="evenodd" clip-rule="evenodd" d="M63.8927 6.27332C64.4785 6.85911 64.4785 7.80886 63.8927 8.39464L60.6654 11.622V18.334C60.6654 19.1624 59.9938 19.834 59.1654 19.834C58.3369 19.834 57.6654 19.1624 57.6654 18.334V11.0007C57.6654 10.6028 57.8234 10.2213 58.1047 9.93999L61.7714 6.27332C62.3572 5.68754 63.3069 5.68754 63.8927 6.27332Z" fill="url(#paint2_linear_16157_1018)"/>
<path fill-rule="evenodd" clip-rule="evenodd" d="M59.1654 68.1673C59.9938 68.1673 60.6654 68.8389 60.6654 69.6673V80.6673C60.6654 81.4957 59.9938 82.1673 59.1654 82.1673C58.3369 82.1673 57.6654 81.4957 57.6654 80.6673V69.6673C57.6654 68.8389 58.3369 68.1673 59.1654 68.1673Z" fill="url(#paint3_linear_16157_1018)"/>
<path fill-rule="evenodd" clip-rule="evenodd" d="M33.4987 68.1673C34.3271 68.1673 34.9987 68.8389 34.9987 69.6673V80.6673C34.9987 81.4957 34.3271 82.1673 33.4987 82.1673C32.6703 82.1673 31.9987 81.4957 31.9987 80.6673V69.6673C31.9987 68.8389 32.6703 68.1673 33.4987 68.1673Z" fill="url(#paint4_linear_16157_1018)"/>
<path fill-rule="evenodd" clip-rule="evenodd" d="M6.33203 29.334C6.33203 28.5056 7.0036 27.834 7.83203 27.834H18.832C19.6605 27.834 20.332 28.5056 20.332 29.334C20.332 30.1624 19.6605 30.834 18.832 30.834H7.83203C7.0036 30.834 6.33203 30.1624 6.33203 29.334Z" fill="url(#paint5_linear_16157_1018)"/>
<path fill-rule="evenodd" clip-rule="evenodd" d="M68.6654 29.334C68.6654 28.5056 69.3369 27.834 70.1654 27.834H81.1654C81.9938 27.834 82.6654 28.5056 82.6654 29.334C82.6654 30.1624 81.9938 30.834 81.1654 30.834H70.1654C69.3369 30.834 68.6654 30.1624 68.6654 29.334Z" fill="url(#paint6_linear_16157_1018)"/>
<path fill-rule="evenodd" clip-rule="evenodd" d="M68.6654 58.6673C68.6654 57.8389 69.3369 57.1673 70.1654 57.1673H81.1654C81.9938 57.1673 82.6654 57.8389 82.6654 58.6673C82.6654 59.4957 81.9938 60.1673 81.1654 60.1673H70.1654C69.3369 60.1673 68.6654 59.4957 68.6654 58.6673Z" fill="url(#paint7_linear_16157_1018)"/>
<path fill-rule="evenodd" clip-rule="evenodd" d="M10.438 57.6067C10.7193 57.3254 11.1009 57.1673 11.4987 57.1673H18.832C19.6605 57.1673 20.332 57.8389 20.332 58.6673C20.332 59.4957 19.6605 60.1673 18.832 60.1673H12.12L8.89269 63.3946C8.30691 63.9804 7.35716 63.9804 6.77137 63.3946C6.18558 62.8089 6.18558 61.8591 6.77137 61.2733L10.438 57.6067Z" fill="url(#paint8_linear_16157_1018)"/>
<defs>
<linearGradient id="paint0_linear_16157_1018" x1="6.33203" y1="44.0006" x2="82.6654" y2="44.0006" gradientUnits="userSpaceOnUse">
<stop stop-color="#DB6A19"/>
<stop offset="0.705" stop-color="#29007F"/>
</linearGradient>
<linearGradient id="paint1_linear_16157_1018" x1="6.33203" y1="44.0006" x2="82.6654" y2="44.0006" gradientUnits="userSpaceOnUse">
<stop stop-color="#DB6A19"/>
<stop offset="0.705" stop-color="#29007F"/>
</linearGradient>
<linearGradient id="paint2_linear_16157_1018" x1="6.33203" y1="44.0006" x2="82.6654" y2="44.0006" gradientUnits="userSpaceOnUse">
<stop stop-color="#DB6A19"/>
<stop offset="0.705" stop-color="#29007F"/>
</linearGradient>
<linearGradient id="paint3_linear_16157_1018" x1="6.33203" y1="44.0006" x2="82.6654" y2="44.0006" gradientUnits="userSpaceOnUse">
<stop stop-color="#DB6A19"/>
<stop offset="0.705" stop-color="#29007F"/>
</linearGradient>
<linearGradient id="paint4_linear_16157_1018" x1="6.33203" y1="44.0006" x2="82.6654" y2="44.0006" gradientUnits="userSpaceOnUse">
<stop stop-color="#DB6A19"/>
<stop offset="0.705" stop-color="#29007F"/>
</linearGradient>
<linearGradient id="paint5_linear_16157_1018" x1="6.33203" y1="44.0006" x2="82.6654" y2="44.0006" gradientUnits="userSpaceOnUse">
<stop stop-color="#DB6A19"/>
<stop offset="0.705" stop-color="#29007F"/>
</linearGradient>
<linearGradient id="paint6_linear_16157_1018" x1="6.33203" y1="44.0006" x2="82.6654" y2="44.0006" gradientUnits="userSpaceOnUse">
<stop stop-color="#DB6A19"/>
<stop offset="0.705" stop-color="#29007F"/>
</linearGradient>
<linearGradient id="paint7_linear_16157_1018" x1="6.33203" y1="44.0006" x2="82.6654" y2="44.0006" gradientUnits="userSpaceOnUse">
<stop stop-color="#DB6A19"/>
<stop offset="0.705" stop-color="#29007F"/>
</linearGradient>
<linearGradient id="paint8_linear_16157_1018" x1="6.33203" y1="44.0006" x2="82.6654" y2="44.0006" gradientUnits="userSpaceOnUse">
<stop stop-color="#DB6A19"/>
<stop offset="0.705" stop-color="#29007F"/>
</linearGradient>
</defs>
</svg>
