<svg width="89" height="88" viewBox="0 0 89 88" fill="none" xmlns="http://www.w3.org/2000/svg">
<path d="M29.8359 14.6673V58.6673C29.8359 60.6122 30.6086 62.4775 31.9838 63.8528C33.3591 65.228 35.2243 66.0007 37.1693 66.0007H66.5026C68.4475 66.0007 70.3128 65.228 71.6881 63.8528C73.0633 62.4775 73.8359 60.6122 73.8359 58.6673V26.5547C73.8358 25.5777 73.6405 24.6106 73.2614 23.7102C72.8824 22.8098 72.3272 21.9942 71.6286 21.3113L59.4736 9.42398C58.1036 8.0844 56.2637 7.33422 54.3476 7.33398H37.1693C35.2243 7.33398 33.3591 8.1066 31.9838 9.48187C30.6086 10.8571 29.8359 12.7224 29.8359 14.6673Z" stroke="url(#paint0_linear_16157_302)" stroke-width="3" stroke-linecap="round" stroke-linejoin="round"/>
<path d="M59.168 66.0013V73.3346C59.168 75.2796 58.3954 77.1448 57.0201 78.5201C55.6448 79.8954 53.7796 80.668 51.8346 80.668H22.5013C20.5564 80.668 18.6911 79.8954 17.3159 78.5201C15.9406 77.1448 15.168 75.2796 15.168 73.3346V33.0013C15.168 31.0564 15.9406 29.1911 17.3159 27.8159C18.6911 26.4406 20.5564 25.668 22.5013 25.668H29.8346" stroke="url(#paint1_linear_16157_302)" stroke-width="3" stroke-linecap="round" stroke-linejoin="round"/>
<defs>
<linearGradient id="paint0_linear_16157_302" x1="29.8359" y1="36.6673" x2="73.8359" y2="36.6673" gradientUnits="userSpaceOnUse">
<stop stop-color="#DB6A19"/>
<stop offset="0.705" stop-color="#29007F"/>
</linearGradient>
<linearGradient id="paint1_linear_16157_302" x1="15.168" y1="53.168" x2="59.168" y2="53.168" gradientUnits="userSpaceOnUse">
<stop stop-color="#DB6A19"/>
<stop offset="0.705" stop-color="#29007F"/>
</linearGradient>
</defs>
</svg>
