<svg width="89" height="88" viewBox="0 0 89 88" fill="none" xmlns="http://www.w3.org/2000/svg">
<path d="M37.1654 54.9994H15.1654V21.9993C15.1654 20.0544 15.938 18.1892 17.3132 16.8139C18.6885 15.4386 20.5538 14.666 22.4987 14.666H66.4987C68.4436 14.666 70.3089 15.4386 71.6841 16.8139C73.0594 18.1892 73.832 20.0544 73.832 21.9993V29.3327M7.83203 65.9993H51.832M66.4987 62.3327H66.5354M51.832 33.7327C51.832 31.3017 54.021 29.3327 56.7197 29.3327H76.2777C78.9764 29.3327 81.1654 31.3017 81.1654 33.7327V68.9327C81.1654 71.3637 78.9764 73.3327 76.2777 73.3327H56.7197C54.021 73.3327 51.832 71.3637 51.832 68.9327V33.7327Z" stroke="url(#paint0_linear_16157_247)" stroke-width="3" stroke-linecap="round" stroke-linejoin="round"/>
<defs>
<linearGradient id="paint0_linear_16157_247" x1="7.83203" y1="43.9993" x2="81.1654" y2="43.9993" gradientUnits="userSpaceOnUse">
<stop stop-color="#DB6A19"/>
<stop offset="0.705" stop-color="#29007F"/>
</linearGradient>
</defs>
</svg>
