<svg width="89" height="88" viewBox="0 0 89 88" fill="none" xmlns="http://www.w3.org/2000/svg">
<path d="M70.1667 11V9.5V11ZM33.5 11V9.5V11ZM26.1667 18.3333H24.6667H26.1667ZM18.8333 29.3333V30.8333V29.3333ZM26.1667 29.3333H27.6667C27.6667 28.5049 26.9951 27.8333 26.1667 27.8333V29.3333ZM40.8333 49.8333C40.0049 49.8333 39.3333 50.5049 39.3333 51.3333C39.3333 52.1618 40.0049 52.8333 40.8333 52.8333V49.8333ZM62.8333 52.8333C63.6618 52.8333 64.3333 52.1618 64.3333 51.3333C64.3333 50.5049 63.6618 49.8333 62.8333 49.8333V52.8333ZM40.8333 60.8333C40.0049 60.8333 39.3333 61.5049 39.3333 62.3333C39.3333 63.1618 40.0049 63.8333 40.8333 63.8333V60.8333ZM51.8333 63.8333C52.6618 63.8333 53.3333 63.1618 53.3333 62.3333C53.3333 61.5049 52.6618 60.8333 51.8333 60.8333V63.8333ZM18.8333 78.5H62.8333V75.5H18.8333V78.5ZM62.8333 78.5C67.121 78.5 71.2331 76.7967 74.2649 73.7649L72.1436 71.6436C69.6743 74.1128 66.3254 75.5 62.8333 75.5V78.5ZM74.2649 73.7649C77.2967 70.7331 79 66.621 79 62.3333H76C76 65.8254 74.6128 69.1743 72.1436 71.6436L74.2649 73.7649ZM79 62.3333V18.3333H76V62.3333H79ZM79 18.3333C79 15.9906 78.0693 13.7438 76.4128 12.0872L74.2915 14.2085C75.3854 15.3025 76 16.7862 76 18.3333H79ZM76.4128 12.0872C74.7562 10.4307 72.5094 9.5 70.1667 9.5V12.5C71.7138 12.5 73.1975 13.1146 74.2915 14.2085L76.4128 12.0872ZM70.1667 9.5H33.5V12.5H70.1667V9.5ZM33.5 9.5C31.1573 9.5 28.9105 10.4307 27.2539 12.0872L29.3752 14.2085C30.4692 13.1146 31.9529 12.5 33.5 12.5V9.5ZM27.2539 12.0872C25.5973 13.7438 24.6667 15.9906 24.6667 18.3333H27.6667C27.6667 16.7862 28.2812 15.3025 29.3752 14.2085L27.2539 12.0872ZM24.6667 18.3333V66H27.6667V18.3333H24.6667ZM24.6667 66C24.6667 68.9994 24.3436 71.425 23.4582 73.0662C23.0337 73.8531 22.4917 74.4363 21.7971 74.8338C21.0968 75.2348 20.1481 75.5 18.8333 75.5V78.5C20.5564 78.5 22.0433 78.1497 23.2875 77.4374C24.5376 76.7218 25.4492 75.6942 26.0985 74.4906C27.3609 72.1506 27.6667 69.0763 27.6667 66H24.6667ZM13 36.6667C13 35.1196 13.6146 33.6358 14.7085 32.5419L12.5872 30.4206C10.9307 32.0771 10 34.3239 10 36.6667H13ZM14.7085 32.5419C15.8025 31.4479 17.2862 30.8333 18.8333 30.8333V27.8333C16.4906 27.8333 14.2438 28.764 12.5872 30.4206L14.7085 32.5419ZM18.8333 30.8333H26.1667V27.8333H18.8333V30.8333ZM24.6667 29.3333V67.8333H27.6667V29.3333H24.6667ZM24.6667 67.8333C24.6667 70.1676 24.1382 72.114 23.1824 73.4347C22.2728 74.6914 20.8981 75.5 18.8333 75.5V78.5C21.8286 78.5 24.1205 77.2552 25.6126 75.1936C27.0584 73.196 27.6667 70.5591 27.6667 67.8333H24.6667ZM18.8333 75.5C16.7686 75.5 15.3939 74.6914 14.4843 73.4347C13.5284 72.114 13 70.1676 13 67.8333H10C10 70.5591 10.6082 73.196 12.054 75.1936C13.5461 77.2552 15.8381 78.5 18.8333 78.5V75.5ZM13 67.8333V36.6667H10V67.8333H13ZM46.6667 29.3333C46.6667 30.5299 45.6966 31.5 44.5 31.5V34.5C47.3535 34.5 49.6667 32.1868 49.6667 29.3333H46.6667ZM44.5 31.5C43.3034 31.5 42.3333 30.53 42.3333 29.3333H39.3333C39.3333 32.1868 41.6465 34.5 44.5 34.5V31.5ZM42.3333 29.3333C42.3333 28.1367 43.3034 27.1667 44.5 27.1667V24.1667C41.6465 24.1667 39.3333 26.4799 39.3333 29.3333H42.3333ZM44.5 27.1667C45.6966 27.1667 46.6667 28.1367 46.6667 29.3333H49.6667C49.6667 26.4799 47.3535 24.1667 44.5 24.1667V27.1667ZM40.8333 52.8333H62.8333V49.8333H40.8333V52.8333ZM40.8333 63.8333H51.8333V60.8333H40.8333V63.8333Z" fill="url(#paint0_linear_16157_411)"/>
<defs>
<linearGradient id="paint0_linear_16157_411" x1="11.5" y1="44" x2="77.5" y2="44" gradientUnits="userSpaceOnUse">
<stop stop-color="#DB6A19"/>
<stop offset="0.705" stop-color="#29007F"/>
</linearGradient>
</defs>
</svg>
